<?xml version="1.0" encoding="UTF-8" standalone="no"?>
<!-- Created with Inkscape (http://www.inkscape.org/) -->

<svg
   xmlns:dc="http://purl.org/dc/elements/1.1/"
   xmlns:cc="http://creativecommons.org/ns#"
   xmlns:rdf="http://www.w3.org/1999/02/22-rdf-syntax-ns#"
   xmlns:svg="http://www.w3.org/2000/svg"
   xmlns="http://www.w3.org/2000/svg"
   xmlns:sodipodi="http://sodipodi.sourceforge.net/DTD/sodipodi-0.dtd"
   xmlns:inkscape="http://www.inkscape.org/namespaces/inkscape"
   id="svg2"
   version="1.1"
   inkscape:version="0.91 r13725"
   xml:space="preserve"
   width="118.20247"
   height="110.5"
   viewBox="0 0 118.20247 110.5"
   sodipodi:docname="CC_Logo_onBlack.svg"><metadata
     id="metadata8"><rdf:RDF><cc:Work
         rdf:about=""><dc:format>image/svg+xml</dc:format><dc:type
           rdf:resource="http://purl.org/dc/dcmitype/StillImage" /><dc:title></dc:title></cc:Work></rdf:RDF></metadata><defs
     id="defs6"><clipPath
       clipPathUnits="userSpaceOnUse"
       id="clipPath40"><path
         d="M 0,0 0,884 6910,884 6910,0 0,0 Z"
         id="path42"
         inkscape:connector-curvature="0" /></clipPath><clipPath
       clipPathUnits="userSpaceOnUse"
       id="clipPath46"><path
         d="m 504.297,125.613 c -8.234,8.235 -21.082,9.086 -30.668,2.477 C 429.754,97.8438 379.855,84.8164 335.16,84.8164 195.121,84.8164 81.5664,200.402 84.8906,341.191 88.1133,477.863 203.145,585.516 339.855,585.516 l 268.235,0 c 25.644,0 48.531,-18.387 51.797,-43.825 3.953,-30.773 -20.02,-57.105 -50.032,-57.105 l -270.761,0 c -73.258,0 -135.735,-56.852 -138.508,-130.055 -2.914,-76.965 58.852,-140.511 135.18,-140.511 l 269.062,0 c 183.527,0 337.246,145.191 340.731,328.687 3.566,187.762 -148.133,341.645 -335.098,341.645 -57.148,0 -129.336,-13.563 -194.195,-61.965 -11.633,-8.68 -12.918,-25.672 -2.657,-35.938 l 27.715,-27.711 c 8.231,-8.23 21.082,-9.086 30.668,-2.476 43.871,30.246 93.77,43.269 138.469,43.269 140.047,0 253.602,-115.59 250.269,-256.379 C 857.5,406.48 742.465,298.836 605.754,298.836 l -268.223,0 c -25.64,0 -48.527,18.383 -51.797,43.816 -3.957,30.774 20.02,57.118 50.032,57.118 l 270.769,0 c 73.254,0 135.731,56.851 138.5,130.054 2.91,76.961 -58.851,140.508 -135.18,140.508 l -269.07,0 C 157.262,670.332 3.54688,525.145 0.0625,341.652 -3.50391,153.887 148.195,0 335.16,0 c 57.149,0 129.336,13.5664 194.195,61.9648 11.633,8.6797 12.918,25.6719 2.653,35.9336 l -27.711,27.7146 z"
         id="path48"
         inkscape:connector-curvature="0" /></clipPath><linearGradient
       x1="0"
       y1="0"
       x2="1"
       y2="0"
       gradientUnits="userSpaceOnUse"
       gradientTransform="matrix(718.429,718.429,718.429,-718.429,113.59688,82.663)"
       spreadMethod="pad"
       id="linearGradient50"><stop
         style="stop-opacity:1;stop-color:#45b6d5"
         offset="0"
         id="stop52" /><stop
         style="stop-opacity:1;stop-color:#45b6d5"
         offset="0.05"
         id="stop54" /><stop
         style="stop-opacity:1;stop-color:#8dd6a6"
         offset="1"
         id="stop56" /></linearGradient></defs><sodipodi:namedview
     pagecolor="#ffffff"
     bordercolor="#666666"
     borderopacity="1"
     objecttolerance="10"
     gridtolerance="10"
     guidetolerance="10"
     inkscape:pageopacity="0"
     inkscape:pageshadow="2"
     inkscape:window-width="1920"
     inkscape:window-height="1016"
     id="namedview4"
     showgrid="false"
     inkscape:zoom="5.2785626"
     inkscape:cx="49.516987"
     inkscape:cy="49.963674"
     inkscape:window-x="0"
     inkscape:window-y="27"
     inkscape:window-maximized="1"
     inkscape:current-layer="g10"
     fit-margin-top="0"
     fit-margin-left="0"
     fit-margin-right="0"
     fit-margin-bottom="0" /><g
     id="g10"
     inkscape:groupmode="layer"
     inkscape:label="ink_ext_XXXXXX"
     transform="matrix(1.25,0,0,-1.25,-1.0965725e-4,110.5)"><g
       id="g36"
       transform="scale(0.1,0.1)"><g
         clip-path="url(#clipPath40)"
         id="g38"><g
           clip-path="url(#clipPath46)"
           id="g44"><path
             inkscape:connector-curvature="0"
             id="path58"
             style="fill:url(#linearGradient50);fill-opacity:1;fill-rule:nonzero;stroke:none"
             d="m 315,0 0,1 -16,0 0,1 -7,0 0,1 -6,0 0,1 -7,0 0,1 -6,0 0,1 -7,0 0,1 -3,0 0,1 -4,0 0,1 -4,0 0,1 -4,0 0,1 -4,0 0,1 -4,0 0,1 -3,0 0,1 -4,0 0,1 -4,0 0,1 -2,0 0,1 -3,0 0,1 -3,0 0,1 -2,0 0,1 -3,0 0,1 -3,0 0,1 -2,0 0,1 -3,0 0,1 -3,0 0,1 -2,0 0,1 -3,0 0,1 -2,0 0,1 -2,0 0,1 -2,0 0,1 -2,0 0,1 -2,0 0,1 -2,0 0,1 -2,0 0,1 -2,0 0,1 -3,0 0,1 -2,0 0,1 -2,0 0,1 -2,0 0,1 -2,0 0,1 -2,0 0,1 -2,0 0,1 -1,0 0,1 -2,0 0,1 -1,0 0,1 -2,0 0,1 -2,0 0,1 -1,0 0,1 -2,0 0,1 -2,0 0,1 -1,0 0,1 -2,0 0,1 -1,0 0,1 -2,0 0,1 -2,0 0,1 -1,0 0,1 -2,0 0,1 -2,0 0,1 -1,0 0,1 -1,0 0,1 -2,0 0,1 -1,0 0,1 -1,0 0,1 -2,0 0,1 -1,0 0,1 -1,0 0,1 -2,0 0,1 -1,0 0,1 -1,0 0,1 -1,0 0,1 -2,0 0,1 -1,0 0,1 -1,0 0,1 -2,0 0,1 -1,0 0,1 -1,0 0,1 -2,0 0,1 -1,0 0,1 -1,0 0,1 -1,0 0,1 -1,0 0,1 -1,0 0,1 -1,0 0,1 -2,0 0,1 -1,0 0,1 -1,0 0,1 -1,0 0,1 -1,0 0,1 -1,0 0,1 -1,0 0,1 -1,0 0,1 -1,0 0,1 -1,0 0,1 -1,0 0,1 -1,0 0,1 -2,0 0,1 -1,0 0,1 -1,0 0,1 -1,0 0,1 -1,0 0,1 -1,0 0,1 -1,0 0,1 -1,0 0,1 -1,0 0,2 -1,0 0,1 -1,0 0,1 -1,0 0,1 -1,0 0,1 -1,0 0,1 -1,0 0,1 -1,0 0,1 -1,0 0,2 -1,0 0,1 -1,0 0,1 -1,0 0,1 -1,0 0,1 -1,0 0,1 -1,0 0,1 -1,0 0,1 -1,0 0,2 -1,0 0,1 -1,0 0,1 -1,0 0,1 -1,0 0,2 -1,0 0,1 -1,0 0,1 -1,0 0,2 -1,0 0,1 -1,0 0,1 -1,0 0,2 -1,0 0,1 -1,0 0,2 -1,0 0,1 -1,0 0,1 -1,0 0,2 -1,0 0,1 -1,0 0,1 -1,0 0,2 -1,0 0,1 -1,0 0,1 -1,0 0,2 -1,0 0,2 -1,0 0,1 -1,0 0,2 -1,0 0,2 -1,0 0,1 -1,0 0,2 -1,0 0,2 -1,0 0,1 -1,0 0,2 -1,0 0,2 -1,0 0,2 -1,0 0,1 -1,0 0,2 -1,0 0,2 -1,0 0,1 -1,0 0,2 -1,0 0,2 -1,0 0,2 -1,0 0,2 -1,0 0,2 -1,0 0,2 -1,0 0,3 -1,0 0,2 -1,0 0,2 -1,0 0,2 -1,0 0,2 -1,0 0,2 -1,0 0,2 -1,0 0,3 -1,0 0,2 -1,0 0,2 -1,0 0,3 -1,0 0,3 -1,0 0,3 -1,0 0,3 -1,0 0,3 -1,0 0,2 -1,0 0,3 -1,0 0,3 -1,0 0,3 -1,0 0,3 -1,0 0,4 -1,0 0,4 -1,0 0,4 -1,0 0,4 -1,0 0,4 -1,0 0,4 -1,0 0,4 -1,0 0,5 -1,0 0,6 -1,0 0,8 -1,0 0,7 -1,0 0,7 -1,0 0,12 -1,0 0,43 1,0 0,15 1,0 0,9 1,0 0,6 1,0 0,6 1,0 0,5 1,0 0,6 1,0 0,6 1,0 0,4 1,0 0,3 1,0 0,4 1,0 0,4 1,0 0,3 1,0 0,4 1,0 0,3 1,0 0,4 1,0 0,3 1,0 0,3 1,0 0,3 1,0 0,2 1,0 0,3 1,0 0,2 1,0 0,3 1,0 0,2 1,0 0,3 1,0 0,2 1,0 0,3 1,0 0,2 1,0 0,3 1,0 0,2 1,0 0,2 1,0 0,2 1,0 0,2 1,0 0,2 1,0 0,2 1,0 0,2 1,0 0,2 1,0 0,2 1,0 0,2 1,0 0,2 1,0 0,1 1,0 0,2 1,0 0,2 1,0 0,2 1,0 0,2 1,0 0,1 1,0 0,2 1,0 0,1 1,0 0,2 1,0 0,2 1,0 0,1 1,0 0,2 1,0 0,1 1,0 0,2 1,0 0,1 1,0 0,2 1,0 0,2 1,0 0,1 1,0 0,2 1,0 0,1 1,0 0,2 1,0 0,1 1,0 0,1 1,0 0,2 1,0 0,1 1,0 0,1 1,0 0,1 1,0 0,2 1,0 0,1 1,0 0,1 1,0 0,2 1,0 0,1 1,0 0,1 1,0 0,1 1,0 0,2 1,0 0,1 1,0 0,1 1,0 0,1 1,0 0,2 1,0 0,1 1,0 0,1 1,0 0,1 1,0 0,1 1,0 0,1 1,0 0,1 1,0 0,1 1,0 0,2 1,0 0,1 1,0 0,1 1,0 0,1 1,0 0,1 1,0 0,1 1,0 0,1 1,0 0,1 1,0 0,1 1,0 0,1 1,0 0,1 1,0 0,1 1,0 0,1 1,0 0,1 1,0 0,1 1,0 0,1 1,0 0,1 1,0 0,1 1,0 0,1 1,0 0,1 1,0 0,1 1,0 0,1 1,0 0,1 2,0 0,1 1,0 0,1 1,0 0,1 1,0 0,1 1,0 0,1 1,0 0,1 1,0 0,1 2,0 0,1 1,0 0,1 1,0 0,1 1,0 0,1 1,0 0,1 1,0 0,1 1,0 0,1 2,0 0,1 1,0 0,1 1,0 0,1 2,0 0,1 1,0 0,1 1,0 0,1 2,0 0,1 1,0 0,1 1,0 0,1 2,0 0,1 1,0 0,1 2,0 0,1 1,0 0,1 1,0 0,1 2,0 0,1 1,0 0,1 2,0 0,1 1,0 0,1 1,0 0,1 2,0 0,1 1,0 0,1 2,0 0,1 2,0 0,1 1,0 0,1 2,0 0,1 2,0 0,1 1,0 0,1 2,0 0,1 2,0 0,1 2,0 0,1 1,0 0,1 2,0 0,1 2,0 0,1 1,0 0,1 2,0 0,1 2,0 0,1 2,0 0,1 2,0 0,1 2,0 0,1 2,0 0,1 2,0 0,1 2,0 0,1 2,0 0,1 3,0 0,1 2,0 0,1 2,0 0,1 2,0 0,1 2,0 0,1 2,0 0,1 2,0 0,1 3,0 0,1 3,0 0,1 2,0 0,1 3,0 0,1 3,0 0,1 3,0 0,1 3,0 0,1 2,0 0,1 3,0 0,1 3,0 0,1 3,0 0,1 3,0 0,1 4,0 0,1 4,0 0,1 4,0 0,1 4,0 0,1 4,0 0,1 4,0 0,1 4,0 0,1 5,0 0,1 7,0 0,1 6,0 0,1 7,0 0,1 7,0 0,1 11,0 0,1 21,0 0,1 283,0 0,-1 11,0 0,-1 7,0 0,-1 5,0 0,-1 4,0 0,-1 3,0 0,-1 4,0 0,-1 3,0 0,-1 3,0 0,-1 2,0 0,-1 3,0 0,-1 2,0 0,-1 3,0 0,-1 2,0 0,-1 2,0 0,-1 2,0 0,-1 2,0 0,-1 2,0 0,-1 1,0 0,-1 2,0 0,-1 1,0 0,-1 2,0 0,-1 1,0 0,-1 2,0 0,-1 2,0 0,-1 1,0 0,-1 1,0 0,-1 2,0 0,-1 1,0 0,-1 1,0 0,-1 1,0 0,-1 2,0 0,-1 1,0 0,-1 1,0 0,-1 1,0 0,-1 1,0 0,-1 1,0 0,-1 1,0 0,-1 1,0 0,-1 1,0 0,-1 2,0 0,-1 1,0 0,-2 1,0 0,-1 1,0 0,-1 1,0 0,-1 1,0 0,-1 1,0 0,-1 1,0 0,-1 1,0 0,-2 1,0 0,-1 1,0 0,-1 1,0 0,-1 1,0 0,-2 1,0 0,-1 1,0 0,-2 1,0 0,-1 1,0 0,-1 1,0 0,-2 1,0 0,-2 1,0 0,-1 1,0 0,-2 1,0 0,-2 1,0 0,-2 1,0 0,-1 1,0 0,-2 1,0 0,-3 1,0 0,-2 1,0 0,-2 1,0 0,-2 1,0 0,-3 1,0 0,-3 1,0 0,-3 1,0 0,-3 1,0 0,-3 1,0 0,-4 1,0 0,-4 1,0 0,-5 1,0 0,-7 1,0 0,-19 1,0 0,-4 -1,0 0,-11 -1,0 0,-6 -1,0 0,-6 -1,0 0,-4 -1,0 0,-4 -1,0 0,-3 -1,0 0,-3 -1,0 0,-3 -1,0 0,-2 -1,0 0,-3 -1,0 0,-2 -1,0 0,-3 -1,0 0,-2 -1,0 0,-2 -1,0 0,-2 -1,0 0,-1 -1,0 0,-2 -1,0 0,-2 -1,0 0,-2 -1,0 0,-1 -1,0 0,-2 -1,0 0,-1 -1,0 0,-2 -1,0 0,-1 -1,0 0,-2 -1,0 0,-1 -1,0 0,-2 -1,0 0,-1 -1,0 0,-1 -1,0 0,-1 -1,0 0,-2 -1,0 0,-1 -1,0 0,-1 -1,0 0,-1 -1,0 0,-1 -1,0 0,-1 -1,0 0,-1 -1,0 0,-1 -1,0 0,-1 -1,0 0,-1 -1,0 0,-1 -1,0 0,-1 -1,0 0,-1 -1,0 0,-1 -1,0 0,-1 -1,0 0,-1 -1,0 0,-1 -1,0 0,-1 -2,0 0,-1 -1,0 0,-1 -1,0 0,-1 -1,0 0,-1 -2,0 0,-1 -1,0 0,-1 -1,0 0,-1 -2,0 0,-1 -1,0 0,-1 -2,0 0,-1 -1,0 0,-1 -2,0 0,-1 -2,0 0,-1 -1,0 0,-1 -2,0 0,-1 -2,0 0,-1 -2,0 0,-1 -1,0 0,-1 -3,0 0,-1 -2,0 0,-1 -2,0 0,-1 -2,0 0,-1 -2,0 0,-1 -3,0 0,-1 -3,0 0,-1 -3,0 0,-1 -3,0 0,-1 -3,0 0,-1 -4,0 0,-1 -4,0 0,-1 -6,0 0,-1 -6,0 0,-1 -13,0 0,-1 -283,0 0,-1 -5,0 0,-1 -3,0 0,-1 -3,0 0,-1 -3,0 0,-1 -2,0 0,-1 -1,0 0,-1 -2,0 0,-1 -2,0 0,-1 -1,0 0,-1 -2,0 0,-1 -1,0 0,-1 -1,0 0,-1 -1,0 0,-1 -1,0 0,-1 -1,0 0,-1 -1,0 0,-1 -1,0 0,-1 -1,0 0,-2 -1,0 0,-1 -1,0 0,-1 -1,0 0,-2 -1,0 0,-1 -1,0 0,-2 -1,0 0,-3 -1,0 0,-2 -1,0 0,-2 -1,0 0,-4 -1,0 0,-5 -1,0 0,-14 1,0 0,-4 1,0 0,-4 1,0 0,-3 1,0 0,-2 1,0 0,-2 1,0 0,-2 1,0 0,-1 1,0 0,-2 1,0 0,-1 1,0 0,-2 1,0 0,-1 1,0 0,-1 1,0 0,-1 1,0 0,-1 1,0 0,-1 1,0 0,-1 1,0 0,-1 1,0 0,-1 1,0 0,-1 2,0 0,-1 1,0 0,-1 2,0 0,-1 1,0 0,-1 2,0 0,-1 3,0 0,-1 2,0 0,-1 2,0 0,-1 4,0 0,-1 3,0 0,-1 9,0 0,-1 273,0 0,1 20,0 0,1 8,0 0,1 7,0 0,1 6,0 0,1 6,0 0,1 4,0 0,1 4,0 0,1 5,0 0,1 4,0 0,1 4,0 0,1 3,0 0,1 3,0 0,1 3,0 0,1 3,0 0,1 3,0 0,1 2,0 0,1 3,0 0,1 3,0 0,1 3,0 0,1 2,0 0,1 2,0 0,1 2,0 0,1 2,0 0,1 3,0 0,1 2,0 0,1 2,0 0,1 2,0 0,1 2,0 0,1 2,0 0,1 2,0 0,1 2,0 0,1 2,0 0,1 1,0 0,1 2,0 0,1 2,0 0,1 1,0 0,1 2,0 0,1 2,0 0,1 2,0 0,1 1,0 0,1 2,0 0,1 1,0 0,1 2,0 0,1 1,0 0,1 2,0 0,1 1,0 0,1 1,0 0,1 2,0 0,1 1,0 0,1 2,0 0,1 1,0 0,1 1,0 0,1 2,0 0,1 1,0 0,1 2,0 0,1 1,0 0,1 1,0 0,1 1,0 0,1 1,0 0,1 1,0 0,1 2,0 0,1 1,0 0,1 1,0 0,1 1,0 0,1 1,0 0,1 1,0 0,1 1,0 0,1 2,0 0,1 1,0 0,1 1,0 0,1 1,0 0,1 1,0 0,1 1,0 0,1 1,0 0,1 1,0 0,1 1,0 0,1 1,0 0,1 1,0 0,1 1,0 0,1 1,0 0,1 1,0 0,1 1,0 0,1 1,0 0,2 1,0 0,1 1,0 0,1 1,0 0,1 1,0 0,1 1,0 0,1 1,0 0,1 1,0 0,2 1,0 0,1 1,0 0,1 1,0 0,1 1,0 0,2 1,0 0,1 1,0 0,1 1,0 0,1 1,0 0,2 1,0 0,1 1,0 0,1 1,0 0,1 1,0 0,2 1,0 0,1 1,0 0,2 1,0 0,1 1,0 0,2 1,0 0,2 1,0 0,1 1,0 0,2 1,0 0,1 1,0 0,2 1,0 0,1 1,0 0,2 1,0 0,1 1,0 0,2 1,0 0,2 1,0 0,2 1,0 0,2 1,0 0,2 1,0 0,2 1,0 0,2 1,0 0,2 1,0 0,1 1,0 0,2 1,0 0,2 1,0 0,2 1,0 0,3 1,0 0,2 1,0 0,3 1,0 0,2 1,0 0,3 1,0 0,3 1,0 0,2 1,0 0,3 1,0 0,2 1,0 0,4 1,0 0,3 1,0 0,4 1,0 0,3 1,0 0,4 1,0 0,3 1,0 0,5 1,0 0,6 1,0 0,5 1,0 0,6 1,0 0,7 1,0 0,13 1,0 0,35 -1,0 0,7 -1,0 0,8 -1,0 0,8 -1,0 0,5 -1,0 0,4 -1,0 0,4 -1,0 0,5 -1,0 0,4 -1,0 0,4 -1,0 0,3 -1,0 0,3 -1,0 0,3 -1,0 0,3 -1,0 0,3 -1,0 0,3 -1,0 0,2 -1,0 0,3 -1,0 0,3 -1,0 0,2 -1,0 0,2 -1,0 0,2 -1,0 0,2 -1,0 0,2 -1,0 0,3 -1,0 0,2 -1,0 0,2 -1,0 0,2 -1,0 0,2 -1,0 0,2 -1,0 0,2 -1,0 0,1 -1,0 0,2 -1,0 0,2 -1,0 0,1 -1,0 0,2 -1,0 0,2 -1,0 0,1 -1,0 0,2 -1,0 0,2 -1,0 0,2 -1,0 0,1 -1,0 0,1 -1,0 0,2 -1,0 0,1 -1,0 0,1 -1,0 0,2 -1,0 0,1 -1,0 0,2 -1,0 0,1 -1,0 0,1 -1,0 0,2 -1,0 0,1 -1,0 0,1 -1,0 0,2 -1,0 0,1 -1,0 0,1 -1,0 0,1 -1,0 0,1 -1,0 0,2 -1,0 0,1 -1,0 0,1 -1,0 0,1 -1,0 0,1 -1,0 0,1 -1,0 0,1 -1,0 0,1 -1,0 0,2 -1,0 0,1 -1,0 0,1 -1,0 0,1 -1,0 0,1 -1,0 0,1 -1,0 0,1 -1,0 0,1 -1,0 0,1 -1,0 0,1 -1,0 0,1 -2,0 0,1 -1,0 0,1 -1,0 0,1 -1,0 0,1 -1,0 0,1 -1,0 0,1 -1,0 0,1 -1,0 0,1 -1,0 0,1 -1,0 0,1 -1,0 0,1 -2,0 0,1 -1,0 0,1 -1,0 0,1 -2,0 0,1 -1,0 0,1 -1,0 0,1 -2,0 0,1 -1,0 0,1 -1,0 0,1 -1,0 0,1 -2,0 0,1 -1,0 0,1 -1,0 0,1 -2,0 0,1 -1,0 0,1 -2,0 0,1 -1,0 0,1 -2,0 0,1 -2,0 0,1 -1,0 0,1 -2,0 0,1 -1,0 0,1 -2,0 0,1 -2,0 0,1 -1,0 0,1 -2,0 0,1 -2,0 0,1 -1,0 0,1 -2,0 0,1 -3,0 0,1 -2,0 0,1 -2,0 0,1 -2,0 0,1 -2,0 0,1 -2,0 0,1 -2,0 0,1 -2,0 0,1 -2,0 0,1 -2,0 0,1 -3,0 0,1 -3,0 0,1 -2,0 0,1 -3,0 0,1 -3,0 0,1 -2,0 0,1 -3,0 0,1 -3,0 0,1 -4,0 0,1 -4,0 0,1 -3,0 0,1 -4,0 0,1 -4,0 0,1 -4,0 0,1 -5,0 0,1 -7,0 0,1 -6,0 0,1 -7,0 0,1 -17,0 0,1 -24,0 0,-1 -10,0 0,-1 -10,0 0,-1 -5,0 0,-1 -5,0 0,-1 -6,0 0,-1 -4,0 0,-1 -4,0 0,-1 -4,0 0,-1 -4,0 0,-1 -3,0 0,-1 -3,0 0,-1 -3,0 0,-1 -3,0 0,-1 -3,0 0,-1 -3,0 0,-1 -3,0 0,-1 -2,0 0,-1 -2,0 0,-1 -3,0 0,-1 -2,0 0,-1 -2,0 0,-1 -3,0 0,-1 -2,0 0,-1 -2,0 0,-1 -2,0 0,-1 -2,0 0,-1 -2,0 0,-1 -2,0 0,-1 -2,0 0,-1 -2,0 0,-1 -2,0 0,-1 -1,0 0,-1 -2,0 0,-1 -2,0 0,-1 -1,0 0,-1 -2,0 0,-1 -1,0 0,-1 -2,0 0,-1 -2,0 0,-1 -1,0 0,-1 -2,0 0,-1 -1,0 0,-1 -2,0 0,-1 -2,0 0,-1 -2,0 0,-1 -3,0 0,-1 -8,0 0,-1 -2,0 0,1 -4,0 0,1 -3,0 0,1 -2,0 0,1 -1,0 0,1 -2,0 0,1 -1,0 0,1 -1,0 0,1 -1,0 0,1 -1,0 0,1 -1,0 0,1 -1,0 0,1 -1,0 0,1 -1,0 0,1 -1,0 0,1 -1,0 0,1 -1,0 0,1 -1,0 0,1 -1,0 0,1 -1,0 0,1 -1,0 0,1 -1,0 0,1 -1,0 0,1 -1,0 0,1 -1,0 0,1 -1,0 0,1 -1,0 0,1 -1,0 0,1 -1,0 0,1 -1,0 0,1 -1,0 0,1 -1,0 0,1 -1,0 0,1 -1,0 0,1 -1,0 0,1 -1,0 0,1 -1,0 0,1 -1,0 0,2 -1,0 0,2 -1,0 0,1 -1,0 0,2 -1,0 0,8 -1,0 0,3 1,0 0,4 1,0 0,3 1,0 0,3 1,0 0,1 1,0 0,1 1,0 0,1 1,0 0,1 1,0 0,1 1,0 0,2 2,0 0,1 1,0 0,1 2,0 0,1 1,0 0,1 2,0 0,1 1,0 0,1 2,0 0,1 1,0 0,1 2,0 0,1 1,0 0,1 2,0 0,1 1,0 0,1 2,0 0,1 1,0 0,1 1,0 0,1 2,0 0,1 1,0 0,1 2,0 0,1 2,0 0,1 2,0 0,1 2,0 0,1 2,0 0,1 2,0 0,1 1,0 0,1 2,0 0,1 2,0 0,1 2,0 0,1 2,0 0,1 2,0 0,1 2,0 0,1 2,0 0,1 2,0 0,1 2,0 0,1 3,0 0,1 2,0 0,1 2,0 0,1 3,0 0,1 2,0 0,1 2,0 0,1 3,0 0,1 2,0 0,1 3,0 0,1 3,0 0,1 3,0 0,1 3,0 0,1 3,0 0,1 3,0 0,1 3,0 0,1 3,0 0,1 4,0 0,1 4,0 0,1 4,0 0,1 4,0 0,1 4,0 0,1 4,0 0,1 5,0 0,1 7,0 0,1 6,0 0,1 6,0 0,1 8,0 0,1 11,0 0,1 56,0 0,-1 12,0 0,-1 7,0 0,-1 6,0 0,-1 7,0 0,-1 6,0 0,-1 6,0 0,-1 3,0 0,-1 4,0 0,-1 4,0 0,-1 4,0 0,-1 4,0 0,-1 4,0 0,-1 3,0 0,-1 4,0 0,-1 3,0 0,-1 3,0 0,-1 2,0 0,-1 3,0 0,-1 3,0 0,-1 3,0 0,-1 2,0 0,-1 3,0 0,-1 3,0 0,-1 2,0 0,-1 3,0 0,-1 2,0 0,-1 3,0 0,-1 2,0 0,-1 2,0 0,-1 2,0 0,-1 2,0 0,-1 2,0 0,-1 2,0 0,-1 2,0 0,-1 2,0 0,-1 2,0 0,-1 2,0 0,-1 2,0 0,-1 2,0 0,-1 2,0 0,-1 2,0 0,-1 1,0 0,-1 2,0 0,-1 2,0 0,-1 1,0 0,-1 2,0 0,-1 1,0 0,-1 2,0 0,-1 2,0 0,-1 1,0 0,-1 2,0 0,-1 2,0 0,-1 1,0 0,-1 2,0 0,-1 1,0 0,-1 2,0 0,-1 2,0 0,-1 1,0 0,-1 1,0 0,-1 2,0 0,-1 1,0 0,-1 1,0 0,-1 2,0 0,-1 1,0 0,-1 1,0 0,-1 2,0 0,-1 1,0 0,-1 1,0 0,-1 2,0 0,-1 1,0 0,-1 1,0 0,-1 2,0 0,-1 1,0 0,-1 1,0 0,-1 1,0 0,-1 2,0 0,-1 1,0 0,-1 1,0 0,-1 1,0 0,-1 1,0 0,-1 1,0 0,-1 1,0 0,-1 2,0 0,-1 1,0 0,-1 1,0 0,-1 1,0 0,-1 1,0 0,-1 1,0 0,-1 1,0 0,-1 1,0 0,-1 1,0 0,-1 1,0 0,-1 1,0 0,-1 1,0 0,-1 2,0 0,-1 1,0 0,-1 1,0 0,-1 1,0 0,-1 1,0 0,-1 1,0 0,-1 1,0 0,-1 1,0 0,-2 1,0 0,-1 1,0 0,-1 1,0 0,-1 1,0 0,-1 1,0 0,-1 1,0 0,-1 1,0 0,-1 1,0 0,-2 1,0 0,-1 1,0 0,-1 1,0 0,-1 1,0 0,-1 1,0 0,-1 1,0 0,-1 1,0 0,-1 1,0 0,-1 1,0 0,-2 1,0 0,-1 1,0 0,-1 1,0 0,-1 1,0 0,-2 1,0 0,-1 1,0 0,-2 1,0 0,-1 1,0 0,-1 1,0 0,-2 1,0 0,-1 1,0 0,-1 1,0 0,-2 1,0 0,-1 1,0 0,-1 1,0 0,-2 1,0 0,-1 1,0 0,-2 1,0 0,-1 1,0 0,-1 1,0 0,-2 1,0 0,-1 1,0 0,-2 1,0 0,-2 1,0 0,-1 1,0 0,-2 1,0 0,-2 1,0 0,-1 1,0 0,-2 1,0 0,-2 1,0 0,-1 1,0 0,-2 1,0 0,-2 1,0 0,-1 1,0 0,-2 1,0 0,-2 1,0 0,-2 1,0 0,-1 1,0 0,-2 1,0 0,-2 1,0 0,-3 1,0 0,-2 1,0 0,-2 1,0 0,-2 1,0 0,-2 1,0 0,-2 1,0 0,-2 1,0 0,-3 1,0 0,-2 1,0 0,-2 1,0 0,-2 1,0 0,-2 1,0 0,-3 1,0 0,-3 1,0 0,-3 1,0 0,-3 1,0 0,-2 1,0 0,-3 1,0 0,-3 1,0 0,-3 1,0 0,-3 1,0 0,-3 1,0 0,-3 1,0 0,-4 1,0 0,-4 1,0 0,-4 1,0 0,-4 1,0 0,-4 1,0 0,-5 1,0 0,-4 1,0 0,-4 1,0 0,-8 1,0 0,-7 1,0 0,-7 1,0 0,-8 1,0 0,-21 1,0 0,-26 -1,0 0,-14 -1,0 0,-13 -1,0 0,-5 -1,0 0,-6 -1,0 0,-6 -1,0 0,-6 -1,0 0,-5 -1,0 0,-5 -1,0 0,-4 -1,0 0,-3 -1,0 0,-4 -1,0 0,-3 -1,0 0,-4 -1,0 0,-4 -1,0 0,-3 -1,0 0,-4 -1,0 0,-3 -1,0 0,-2 -1,0 0,-3 -1,0 0,-2 -1,0 0,-3 -1,0 0,-2 -1,0 0,-3 -1,0 0,-2 -1,0 0,-3 -1,0 0,-3 -1,0 0,-2 -1,0 0,-3 -1,0 0,-2 -1,0 0,-2 -1,0 0,-2 -1,0 0,-2 -1,0 0,-2 -1,0 0,-2 -1,0 0,-2 -1,0 0,-2 -1,0 0,-1 -1,0 0,-2 -1,0 0,-2 -1,0 0,-2 -1,0 0,-2 -1,0 0,-2 -1,0 0,-2 -1,0 0,-2 -1,0 0,-1 -1,0 0,-2 -1,0 0,-2 -1,0 0,-1 -1,0 0,-2 -1,0 0,-1 -1,0 0,-2 -1,0 0,-1 -1,0 0,-2 -1,0 0,-1 -1,0 0,-2 -1,0 0,-2 -1,0 0,-1 -1,0 0,-2 -1,0 0,-1 -1,0 0,-2 -1,0 0,-1 -1,0 0,-1 -1,0 0,-2 -1,0 0,-1 -1,0 0,-1 -1,0 0,-2 -1,0 0,-1 -1,0 0,-1 -1,0 0,-1 -1,0 0,-2 -1,0 0,-1 -1,0 0,-1 -1,0 0,-2 -1,0 0,-1 -1,0 0,-1 -1,0 0,-1 -1,0 0,-2 -1,0 0,-1 -1,0 0,-1 -1,0 0,-1 -1,0 0,-2 -1,0 0,-1 -1,0 0,-1 -1,0 0,-1 -1,0 0,-1 -1,0 0,-1 -1,0 0,-1 -1,0 0,-1 -1,0 0,-1 -1,0 0,-1 -1,0 0,-1 -1,0 0,-1 -1,0 0,-1 -1,0 0,-1 -1,0 0,-1 -1,0 0,-1 -1,0 0,-1 -1,0 0,-1 -1,0 0,-1 -1,0 0,-2 -1,0 0,-1 -1,0 0,-1 -1,0 0,-1 -2,0 0,-1 -1,0 0,-1 -1,0 0,-1 -1,0 0,-1 -1,0 0,-1 -1,0 0,-1 -1,0 0,-1 -2,0 0,-1 -1,0 0,-1 -1,0 0,-1 -1,0 0,-1 -1,0 0,-1 -1,0 0,-1 -1,0 0,-1 -2,0 0,-1 -1,0 0,-1 -1,0 0,-1 -1,0 0,-1 -1,0 0,-1 -1,0 0,-1 -2,0 0,-1 -1,0 0,-1 -1,0 0,-1 -2,0 0,-1 -1,0 0,-1 -2,0 0,-1 -1,0 0,-1 -1,0 0,-1 -2,0 0,-1 -1,0 0,-1 -2,0 0,-1 -1,0 0,-1 -1,0 0,-1 -2,0 0,-1 -1,0 0,-1 -1,0 0,-1 -2,0 0,-1 -1,0 0,-1 -2,0 0,-1 -1,0 0,-1 -2,0 0,-1 -2,0 0,-1 -1,0 0,-1 -2,0 0,-1 -2,0 0,-1 -1,0 0,-1 -2,0 0,-1 -2,0 0,-1 -2,0 0,-1 -1,0 0,-1 -2,0 0,-1 -2,0 0,-1 -1,0 0,-1 -2,0 0,-1 -2,0 0,-1 -2,0 0,-1 -2,0 0,-1 -2,0 0,-1 -2,0 0,-1 -2,0 0,-1 -2,0 0,-1 -3,0 0,-1 -2,0 0,-1 -2,0 0,-1 -2,0 0,-1 -2,0 0,-1 -2,0 0,-1 -2,0 0,-1 -3,0 0,-1 -2,0 0,-1 -3,0 0,-1 -3,0 0,-1 -3,0 0,-1 -2,0 0,-1 -3,0 0,-1 -3,0 0,-1 -3,0 0,-1 -3,0 0,-1 -3,0 0,-1 -2,0 0,-1 -4,0 0,-1 -4,0 0,-1 -4,0 0,-1 -4,0 0,-1 -4,0 0,-1 -4,0 0,-1 -4,0 0,-1 -4,0 0,-1 -6,0 0,-1 -6,0 0,-1 -7,0 0,-1 -7,0 0,-1 -7,0 0,-1 -16,0 0,-1 -305,0 0,1 -7,0 0,1 -6,0 0,1 -4,0 0,1 -4,0 0,1 -3,0 0,1 -3,0 0,1 -3,0 0,1 -3,0 0,1 -2,0 0,1 -3,0 0,1 -2,0 0,1 -2,0 0,1 -2,0 0,1 -2,0 0,1 -2,0 0,1 -2,0 0,1 -2,0 0,1 -2,0 0,1 -1,0 0,1 -2,0 0,1 -1,0 0,1 -2,0 0,1 -2,0 0,1 -1,0 0,1 -1,0 0,1 -1,0 0,1 -2,0 0,1 -1,0 0,1 -1,0 0,1 -2,0 0,1 -1,0 0,1 -1,0 0,1 -1,0 0,1 -1,0 0,1 -1,0 0,1 -1,0 0,1 -1,0 0,1 -1,0 0,1 -2,0 0,1 -1,0 0,1 -1,0 0,2 -1,0 0,1 -1,0 0,1 -1,0 0,1 -1,0 0,1 -1,0 0,1 -1,0 0,1 -1,0 0,2 -1,0 0,1 -1,0 0,1 -1,0 0,2 -1,0 0,1 -1,0 0,1 -1,0 0,2 -1,0 0,1 -1,0 0,2 -1,0 0,1 -1,0 0,2 -1,0 0,2 -1,0 0,2 -1,0 0,1 -1,0 0,2 -1,0 0,2 -1,0 0,2 -1,0 0,2 -1,0 0,3 -1,0 0,2 -1,0 0,2 -1,0 0,3 -1,0 0,3 -1,0 0,3 -1,0 0,3 -1,0 0,3 -1,0 0,5 -1,0 0,4 -1,0 0,7 -1,0 0,8 -1,0 0,22 1,0 0,10 1,0 0,5 1,0 0,5 1,0 0,4 1,0 0,3 1,0 0,3 1,0 0,4 1,0 0,2 1,0 0,3 1,0 0,2 1,0 0,3 1,0 0,2 1,0 0,2 1,0 0,2 1,0 0,2 1,0 0,2 1,0 0,1 1,0 0,2 1,0 0,2 1,0 0,1 1,0 0,2 1,0 0,1 1,0 0,2 1,0 0,1 1,0 0,2 1,0 0,1 1,0 0,1 1,0 0,2 1,0 0,1 1,0 0,1 1,0 0,1 1,0 0,2 1,0 0,1 1,0 0,1 1,0 0,1 1,0 0,1 1,0 0,1 1,0 0,1 1,0 0,1 1,0 0,1 1,0 0,1 1,0 0,1 1,0 0,1 1,0 0,1 1,0 0,1 1,0 0,1 2,0 0,1 1,0 0,1 1,0 0,1 1,0 0,1 1,0 0,1 2,0 0,1 1,0 0,1 2,0 0,1 1,0 0,1 1,0 0,1 2,0 0,1 1,0 0,1 2,0 0,1 2,0 0,1 1,0 0,1 2,0 0,1 2,0 0,1 2,0 0,1 1,0 0,1 2,0 0,1 3,0 0,1 2,0 0,1 2,0 0,1 2,0 0,1 3,0 0,1 3,0 0,1 2,0 0,1 3,0 0,1 3,0 0,1 5,0 0,1 4,0 0,1 4,0 0,1 7,0 0,1 8,0 0,1 286,0 0,1 8,0 0,1 3,0 0,1 3,0 0,1 3,0 0,1 2,0 0,1 1,0 0,1 2,0 0,1 2,0 0,1 2,0 0,1 1,0 0,1 1,0 0,1 1,0 0,1 1,0 0,1 1,0 0,1 1,0 0,1 1,0 0,1 1,0 0,1 1,0 0,1 1,0 0,1 1,0 0,2 1,0 0,1 1,0 0,2 1,0 0,1 1,0 0,3 1,0 0,2 1,0 0,2 1,0 0,2 1,0 0,5 1,0 0,5 1,0 0,5 -1,0 0,10 -1,0 0,4 -1,0 0,3 -1,0 0,2 -1,0 0,3 -1,0 0,2 -1,0 0,1 -1,0 0,2 -1,0 0,1 -1,0 0,2 -1,0 0,1 -1,0 0,1 -1,0 0,1 -1,0 0,1 -1,0 0,1 -1,0 0,1 -1,0 0,1 -1,0 0,1 -1,0 0,1 -2,0 0,1 -1,0 0,1 -2,0 0,1 -1,0 0,1 -2,0 0,1 -2,0 0,1 -2,0 0,1 -2,0 0,1 -4,0 0,1 -3,0 0,1 -7,0 0,1 -283,0 0,-1 -17,0 0,-1 -7,0 0,-1 -6,0 0,-1 -7,0 0,-1 -5,0 0,-1 -4,0 0,-1 -4,0 0,-1 -4,0 0,-1 -4,0 0,-1 -4,0 0,-1 -4,0 0,-1 -2,0 0,-1 -3,0 0,-1 -3,0 0,-1 -3,0 0,-1 -3,0 0,-1 -3,0 0,-1 -2,0 0,-1 -3,0 0,-1 -2,0 0,-1 -2,0 0,-1 -2,0 0,-1 -3,0 0,-1 -2,0 0,-1 -2,0 0,-1 -2,0 0,-1 -2,0 0,-1 -2,0 0,-1 -2,0 0,-1 -2,0 0,-1 -2,0 0,-1 -2,0 0,-1 -1,0 0,-1 -2,0 0,-1 -2,0 0,-1 -1,0 0,-1 -2,0 0,-1 -2,0 0,-1 -2,0 0,-1 -1,0 0,-1 -2,0 0,-1 -1,0 0,-1 -2,0 0,-1 -1,0 0,-1 -1,0 0,-1 -2,0 0,-1 -1,0 0,-1 -2,0 0,-1 -1,0 0,-1 -1,0 0,-1 -2,0 0,-1 -1,0 0,-1 -2,0 0,-1 -1,0 0,-1 -1,0 0,-1 -2,0 0,-1 -1,0 0,-1 -1,0 0,-1 -1,0 0,-1 -1,0 0,-1 -1,0 0,-1 -1,0 0,-1 -2,0 0,-1 -1,0 0,-1 -1,0 0,-1 -1,0 0,-1 -1,0 0,-1 -1,0 0,-1 -2,0 0,-1 -1,0 0,-1 -1,0 0,-1 -1,0 0,-1 -1,0 0,-1 -1,0 0,-1 -1,0 0,-1 -1,0 0,-1 -1,0 0,-2 -1,0 0,-1 -1,0 0,-1 -1,0 0,-1 -1,0 0,-1 -1,0 0,-1 -1,0 0,-1 -1,0 0,-1 -1,0 0,-1 -1,0 0,-1 -1,0 0,-1 -1,0 0,-1 -1,0 0,-2 -1,0 0,-1 -1,0 0,-1 -1,0 0,-1 -1,0 0,-2 -1,0 0,-1 -1,0 0,-1 -1,0 0,-2 -1,0 0,-1 -1,0 0,-1 -1,0 0,-1 -1,0 0,-2 -1,0 0,-1 -1,0 0,-1 -1,0 0,-2 -1,0 0,-1 -1,0 0,-2 -1,0 0,-2 -1,0 0,-1 -1,0 0,-2 -1,0 0,-1 -1,0 0,-2 -1,0 0,-1 -1,0 0,-2 -1,0 0,-1 -1,0 0,-2 -1,0 0,-2 -1,0 0,-2 -1,0 0,-2 -1,0 0,-2 -1,0 0,-2 -1,0 0,-2 -1,0 0,-1 -1,0 0,-2 -1,0 0,-2 -1,0 0,-2 -1,0 0,-2 -1,0 0,-3 -1,0 0,-2 -1,0 0,-3 -1,0 0,-2 -1,0 0,-3 -1,0 0,-2 -1,0 0,-3 -1,0 0,-2 -1,0 0,-3 -1,0 0,-3 -1,0 0,-4 -1,0 0,-3 -1,0 0,-4 -1,0 0,-3 -1,0 0,-4 -1,0 0,-3 -1,0 0,-6 -1,0 0,-6 -1,0 0,-5 -1,0 0,-6 -1,0 0,-11 -1,0 0,-14 -1,0 0,-4 1,0 0,-25 1,0 0,-8 1,0 0,-8 1,0 0,-7 1,0 0,-4 1,0 0,-4 1,0 0,-5 1,0 0,-4 1,0 0,-4 1,0 0,-4 1,0 0,-3 1,0 0,-3 1,0 0,-3 1,0 0,-3 1,0 0,-2 1,0 0,-3 1,0 0,-3 1,0 0,-3 1,0 0,-2 1,0 0,-2 1,0 0,-2 1,0 0,-3 1,0 0,-2 1,0 0,-2 1,0 0,-2 1,0 0,-2 1,0 0,-2 1,0 0,-3 1,0 0,-1 1,0 0,-2 1,0 0,-2 1,0 0,-2 1,0 0,-1 1,0 0,-2 1,0 0,-2 1,0 0,-1 1,0 0,-2 1,0 0,-2 1,0 0,-1 1,0 0,-2 1,0 0,-2 1,0 0,-1 1,0 0,-1 1,0 0,-2 1,0 0,-1 1,0 0,-2 1,0 0,-1 1,0 0,-1 1,0 0,-2 1,0 0,-1 1,0 0,-1 1,0 0,-2 1,0 0,-1 1,0 0,-2 1,0 0,-1 1,0 0,-1 1,0 0,-1 1,0 0,-1 1,0 0,-1 1,0 0,-2 1,0 0,-1 1,0 0,-1 1,0 0,-1 1,0 0,-1 1,0 0,-1 1,0 0,-1 1,0 0,-1 1,0 0,-2 1,0 0,-1 1,0 0,-1 1,0 0,-1 1,0 0,-1 1,0 0,-1 1,0 0,-1 1,0 0,-1 1,0 0,-1 1,0 0,-1 1,0 0,-1 2,0 0,-1 1,0 0,-1 1,0 0,-1 1,0 0,-1 1,0 0,-1 1,0 0,-1 1,0 0,-1 1,0 0,-1 1,0 0,-1 1,0 0,-1 1,0 0,-1 2,0 0,-1 1,0 0,-1 1,0 0,-1 2,0 0,-1 1,0 0,-1 1,0 0,-1 2,0 0,-1 1,0 0,-1 1,0 0,-1 2,0 0,-1 1,0 0,-1 1,0 0,-1 1,0 0,-1 2,0 0,-1 1,0 0,-1 2,0 0,-1 2,0 0,-1 1,0 0,-1 2,0 0,-1 1,0 0,-1 2,0 0,-1 2,0 0,-1 1,0 0,-1 2,0 0,-1 2,0 0,-1 1,0 0,-1 2,0 0,-1 2,0 0,-1 2,0 0,-1 2,0 0,-1 2,0 0,-1 2,0 0,-1 2,0 0,-1 2,0 0,-1 2,0 0,-1 2,0 0,-1 2,0 0,-1 2,0 0,-1 3,0 0,-1 3,0 0,-1 2,0 0,-1 3,0 0,-1 3,0 0,-1 2,0 0,-1 3,0 0,-1 3,0 0,-1 3,0 0,-1 4,0 0,-1 3,0 0,-1 4,0 0,-1 4,0 0,-1 4,0 0,-1 4,0 0,-1 6,0 0,-1 7,0 0,-1 6,0 0,-1 9,0 0,-1 19,0 0,-1 8,0 0,1 17,0 0,1 9,0 0,1 7,0 0,1 5,0 0,1 6,0 0,1 4,0 0,1 4,0 0,1 4,0 0,1 4,0 0,1 4,0 0,1 3,0 0,1 3,0 0,1 3,0 0,1 3,0 0,1 3,0 0,1 3,0 0,1 2,0 0,1 2,0 0,1 3,0 0,1 2,0 0,1 2,0 0,1 3,0 0,1 2,0 0,1 2,0 0,1 2,0 0,1 2,0 0,1 2,0 0,1 2,0 0,1 2,0 0,1 2,0 0,1 1,0 0,1 2,0 0,1 2,0 0,1 2,0 0,1 1,0 0,1 2,0 0,1 1,0 0,1 2,0 0,1 2,0 0,1 1,0 0,1 2,0 0,1 1,0 0,1 2,0 0,1 2,0 0,1 2,0 0,1 2,0 0,1 6,0 0,1 7,0 0,-1 4,0 0,-1 2,0 0,-1 2,0 0,-1 1,0 0,-1 2,0 0,-1 1,0 0,-1 1,0 0,-1 1,0 0,-1 1,0 0,-1 1,0 0,-1 1,0 0,-1 1,0 0,-1 1,0 0,-1 1,0 0,-1 1,0 0,-1 1,0 0,-1 1,0 0,-1 1,0 0,-1 1,0 0,-1 1,0 0,-1 1,0 0,-1 1,0 0,-1 1,0 0,-1 1,0 0,-1 1,0 0,-1 1,0 0,-1 1,0 0,-1 1,0 0,-1 1,0 0,-1 1,0 0,-1 1,0 0,-1 1,0 0,-1 1,0 0,-1 1,0 0,-1 1,0 0,-1 1,0 0,-2 1,0 0,-1 1,0 0,-2 1,0 0,-1 1,0 0,-5 1,0 0,-10 -1,0 0,-4 -1,0 0,-3 -1,0 0,-1 -1,0 0,-1 -1,0 0,-1 -1,0 0,-1 -1,0 0,-2 -1,0 0,-1 -1,0 0,-1 -2,0 0,-1 -1,0 0,-1 -2,0 0,-1 -1,0 0,-1 -2,0 0,-1 -1,0 0,-1 -2,0 0,-1 -1,0 0,-1 -1,0 0,-1 -2,0 0,-1 -1,0 0,-1 -2,0 0,-1 -1,0 0,-1 -2,0 0,-1 -1,0 0,-1 -2,0 0,-1 -2,0 0,-1 -1,0 0,-1 -2,0 0,-1 -2,0 0,-1 -2,0 0,-1 -2,0 0,-1 -2,0 0,-1 -1,0 0,-1 -2,0 0,-1 -2,0 0,-1 -2,0 0,-1 -2,0 0,-1 -2,0 0,-1 -2,0 0,-1 -2,0 0,-1 -2,0 0,-1 -3,0 0,-1 -2,0 0,-1 -2,0 0,-1 -3,0 0,-1 -2,0 0,-1 -2,0 0,-1 -3,0 0,-1 -2,0 0,-1 -2,0 0,-1 -3,0 0,-1 -3,0 0,-1 -3,0 0,-1 -3,0 0,-1 -4,0 0,-1 -3,0 0,-1 -3,0 0,-1 -3,0 0,-1 -4,0 0,-1 -4,0 0,-1 -4,0 0,-1 -4,0 0,-1 -4,0 0,-1 -4,0 0,-1 -6,0 0,-1 -6,0 0,-1 -6,0 0,-1 -6,0 0,-1 -10,0 0,-1 -11,0 0,-1" /></g></g></g></g></svg>