<?xml version="1.0" encoding="UTF-8" standalone="no"?>
<!-- Created with Inkscape (http://www.inkscape.org/) -->

<svg
   xmlns:dc="http://purl.org/dc/elements/1.1/"
   xmlns:cc="http://creativecommons.org/ns#"
   xmlns:rdf="http://www.w3.org/1999/02/22-rdf-syntax-ns#"
   xmlns:svg="http://www.w3.org/2000/svg"
   xmlns="http://www.w3.org/2000/svg"
   xmlns:sodipodi="http://sodipodi.sourceforge.net/DTD/sodipodi-0.dtd"
   xmlns:inkscape="http://www.inkscape.org/namespaces/inkscape"
   id="svg2"
   version="1.1"
   inkscape:version="0.91 r13725"
   xml:space="preserve"
   width="864.71252"
   height="110.2875"
   viewBox="0 0 864.71252 110.2875"
   sodipodi:docname="CC_RGB_white.svg"><metadata
     id="metadata8"><rdf:RDF><cc:Work
         rdf:about=""><dc:format>image/svg+xml</dc:format><dc:type
           rdf:resource="http://purl.org/dc/dcmitype/StillImage" /><dc:title></dc:title></cc:Work></rdf:RDF></metadata><defs
     id="defs6" /><sodipodi:namedview
     pagecolor="#ffffff"
     bordercolor="#666666"
     borderopacity="1"
     objecttolerance="10"
     gridtolerance="10"
     guidetolerance="10"
     inkscape:pageopacity="0"
     inkscape:pageshadow="2"
     inkscape:window-width="957"
     inkscape:window-height="480"
     id="namedview4"
     showgrid="false"
     inkscape:zoom="0.46605084"
     inkscape:cx="432.35626"
     inkscape:cy="55.143749"
     inkscape:window-x="0"
     inkscape:window-y="27"
     inkscape:window-maximized="0"
     inkscape:current-layer="g10" /><g
     id="g10"
     inkscape:groupmode="layer"
     inkscape:label="ink_ext_XXXXXX"
     transform="matrix(1.25,0,0,-1.25,0,110.2875)"><g
       id="g12"
       transform="scale(0.1,0.1)"><path
         d="m 6037.86,732.855 -30.17,0 c -67.78,-1.546 -126.34,-11.472 -174.28,-29.613 -31.22,-13.094 -40.24,-26.426 -40.24,-59.433 l 0,-393.731 c 0,-20.723 8.96,-29.969 29.06,-29.969 l 39.41,0 c 21,0 29.97,8.961 29.97,29.969 l 0,363.731 c 0,6.402 0,8.558 7.84,11.597 34.23,10.625 67.79,15.574 105.61,15.574 l 32.8,0 c 21.04,0 30.02,8.981 30.02,30.028 l 0,31.879 c 0,21.004 -8.98,29.968 -30.02,29.968 z m -2729.82,-216.539 -241.86,0 0,19.7 c 0,71.328 42.94,110.609 120.93,110.609 77.98,0 120.93,-39.281 120.93,-110.609 l 0,-19.7 z m -120.93,216.539 c -139.41,0 -219.36,-75.839 -219.36,-208.07 l 0,-116.277 c 0,-130.578 76.56,-202.481 215.6,-202.481 99.85,0 169.84,33.75 207.83,99.981 6.71,10.359 8.96,19.812 6.7,28.094 -2.15,7.882 -8.23,14.367 -17.98,19.238 l -25.13,13.008 c -8.21,4.57 -14.51,6.601 -20.42,6.601 -12.04,0 -19.84,-8.719 -26.22,-17.754 -24.42,-41.054 -64.92,-61.004 -123.82,-61.004 -77.28,0 -118.13,36.297 -118.13,104.957 l 0,37.5 298.12,0 c 27.59,0 42.17,13.938 42.17,40.293 l 0,54.399 c 0,126.183 -82,201.515 -219.36,201.515 z m 1288.58,-216.539 -241.86,0 0,19.7 c 0,71.328 42.95,110.609 120.93,110.609 77.98,0 120.93,-39.281 120.93,-110.609 l 0,-19.7 z m -120.93,216.539 c -139.41,0 -219.37,-75.839 -219.37,-208.07 l 0,-116.277 c 0,-130.578 76.6,-202.481 215.66,-202.481 99.78,0 169.78,33.75 207.84,99.989 6.78,10.539 8.96,19.738 6.66,28.132 -2.16,7.864 -8.23,14.329 -17.96,19.192 l -25.12,13.019 c -8.24,4.559 -14.55,6.59 -20.45,6.59 -12.05,0 -19.85,-8.73 -26.2,-17.754 -24.41,-41.054 -64.93,-61.004 -123.86,-61.004 -77.28,0 -118.13,36.297 -118.13,104.957 l 0,37.5 298.12,0 c 27.59,0 42.17,13.938 42.17,40.293 l 0,54.399 c 0,126.183 -82.01,201.515 -219.36,201.515 z m 612.91,0 c -92.19,0 -147.98,-18.507 -181.96,-32.457 -31.22,-13.043 -40.26,-26.367 -40.26,-59.386 l 0,-390.934 c 0,-20.723 8.97,-29.969 29.07,-29.969 l 39.4,0 c 21.01,0 29.97,8.961 29.97,29.969 l 0,364.695 c 0,5.465 0.95,7.668 6.08,9.739 34.17,10.929 69.97,16.468 106.41,16.468 74.84,0 109.69,-33.058 109.69,-104.046 l 0,-286.856 c 0,-21.008 8.98,-29.969 30.03,-29.969 l 39.34,0 c 21.02,0 29.98,8.961 29.98,29.969 l 0,289.707 c 0,126.309 -68.37,193.07 -197.75,193.07 z M 2107.59,392.598 c 0,-59.871 -44.86,-95.614 -120.01,-95.614 -74.54,0 -119.05,35.743 -119.05,95.614 l 0,153.742 c 0,59.867 44.51,95.609 119.05,95.609 75.15,0 120.01,-35.742 120.01,-95.609 l 0,-153.742 z m -120.01,340.257 c -136.18,0 -217.48,-70.085 -217.48,-187.484 l 0,-152.773 c 0,-115.078 83.34,-186.571 217.48,-186.571 136.78,0 218.44,69.746 218.44,186.571 l 0,152.773 c 0,117.399 -81.66,187.484 -218.44,187.484 z m 4293.91,-14.031 -39.41,0 c -21,0 -29.97,-8.98 -29.97,-30.019 l 0,-438.727 c 0,-21.008 8.97,-29.969 29.97,-29.969 l 39.41,0 c 21,0 29.97,8.961 29.97,29.969 l 0,438.727 c 0,21.039 -8.97,30.019 -29.97,30.019 z m -667.21,0 -115.28,0 0,131.895 c 0,21.011 -8.97,29.976 -29.97,29.976 l -39.41,0 c -20.64,0 -29.06,-8.687 -29.06,-29.976 l 0,-131.895 -70.28,0 c -21.05,0 -30.03,-8.98 -30.03,-30.019 l 0,-32.793 c 0,-21.047 8.98,-30.028 30.03,-30.028 l 70.28,0 0,-212.75 c 0,-79.484 13.84,-129.211 44.87,-161.23 30.31,-31.281 76.82,-45.227 150.82,-45.227 5.31,0.008 10.77,0.078 16.53,0.227 18.87,0.965 30.56,6.316 30.56,29.961 l 0,33.758 c 0,21.601 -8.68,30.019 -30.94,30.019 -86.48,0 -113.4,15.774 -113.4,114.375 l 0,210.867 115.28,0 c 20.1,0 29.06,9.258 29.06,30.028 l 0,32.793 c 0,20.761 -8.96,30.019 -29.06,30.019 z M 2692.33,323.242 c 0,-7.656 0,-7.656 -8.07,-10.754 -27.12,-9.414 -61.87,-14.59 -97.86,-14.59 -78.19,0 -116.2,34.961 -116.2,106.899 l 0,126.543 c 0,74.805 36.35,109.64 114.37,109.64 47.34,0 85.11,-11.625 107.76,-18.625 l 0,-299.113 z m 69.38,557.453 -39.35,0 c -21.05,0 -30.03,-8.98 -30.03,-30.027 l 0,-136.105 c -26.58,7.136 -71.41,18.292 -123.72,18.292 -129.41,0 -197.81,-68.714 -197.81,-198.714 l 0,-132.2 c 0,-128.171 71.97,-195.914 208.13,-195.914 83.97,0 137.51,16.883 170.61,29.637 33.13,13.469 41.22,24.949 41.22,58.496 l 0,556.508 c 0,20.77 -8.96,30.027 -29.05,30.027"
         style="fill:#ffffff;fill-opacity:1;fill-rule:nonzero;stroke:none"
         id="path14"
         inkscape:connector-curvature="0" /><path
         d="m 503.133,125.32 c -8.211,8.219 -21.035,9.071 -30.598,2.477 C 428.766,97.6172 378.98,84.6211 334.391,84.6211 194.672,84.6211 81.3789,199.941 84.6914,340.402 87.9102,476.762 202.676,584.164 339.074,584.164 l 267.614,0 c 25.585,0 48.417,-18.344 51.679,-43.723 3.942,-30.703 -19.976,-56.972 -49.918,-56.972 l -270.136,0 c -73.09,0 -135.422,-56.719 -138.188,-129.754 -2.91,-76.789 58.715,-140.192 134.867,-140.192 l 268.442,0 c 183.105,0 336.468,144.86 339.945,327.934 3.555,187.328 -147.793,340.852 -334.328,340.852 -57.016,0 -129.035,-13.532 -193.746,-61.821 -11.606,-8.66 -12.887,-25.613 -2.649,-35.851 l 27.649,-27.649 c 8.215,-8.215 21.035,-9.062 30.597,-2.472 43.774,30.175 93.555,43.172 138.149,43.172 139.722,0 253.019,-115.325 249.695,-255.79 C 855.52,405.543 740.754,298.148 604.359,298.148 l -267.605,0 c -25.586,0 -48.418,18.336 -51.68,43.715 -3.945,30.703 19.973,56.985 49.918,56.985 l 270.145,0 c 73.086,0 135.414,56.718 138.179,129.754 2.907,76.785 -58.714,140.183 -134.867,140.183 l -268.449,0 C 156.898,668.785 3.53906,523.93 0.0625,340.863 -3.49609,153.531 147.855,0 334.391,0 c 57.011,0 129.035,13.5352 193.742,61.8203 11.605,8.6602 12.887,25.6133 2.648,35.8555 L 503.133,125.32"
         style="fill:#ffffff;fill-opacity:1;fill-rule:nonzero;stroke:none"
         id="path16"
         inkscape:connector-curvature="0" /><path
         d="m 1595.2,382.012 c 0,0 -31.56,11.906 -44.89,11.765 -14.19,-0.144 -20.22,-10.859 -25.76,-22.82 -22.99,-49.68 -57.58,-75.848 -118.92,-75.848 -73.75,0 -114.37,36.954 -114.37,104.039 l 0,141.543 c 0,67.477 39.55,103.141 114.37,103.141 62.69,0 92.79,-22.391 114.88,-73.977 4.18,-9.761 10.77,-22.089 26.09,-23.046 12.04,-0.758 59.39,15.093 68.51,29.652 4.06,6.477 2.97,15.387 -0.79,25.582 -18.89,59.676 -69.78,130.812 -204.92,130.812 -140.25,0 -217.48,-69.578 -217.48,-195.921 l 0,-134.024 c 0,-126.965 75.23,-196.883 211.83,-196.883 110.4,0 179.86,43.946 212.34,134.293 9.55,25.91 -4.87,35.5 -20.89,41.692"
         style="fill:#ffffff;fill-opacity:1;fill-rule:nonzero;stroke:none"
         id="path18"
         inkscape:connector-curvature="0" /><path
         d="m 3962.38,382.012 c 0,0 -31.56,11.906 -44.89,11.765 -14.19,-0.144 -20.23,-10.859 -25.76,-22.82 -22.99,-49.68 -57.58,-75.848 -118.92,-75.848 -73.75,0 -114.37,36.954 -114.37,104.039 l 0,141.543 c 0,67.477 39.55,103.141 114.37,103.141 62.69,0 92.78,-22.391 114.88,-73.977 4.18,-9.761 10.77,-22.089 26.08,-23.046 12.05,-0.758 59.4,15.093 68.52,29.652 4.06,6.477 2.97,15.387 -0.79,25.582 -18.89,59.676 -69.78,130.812 -204.92,130.812 -140.25,0 -217.48,-69.578 -217.48,-195.921 l 0,-134.024 c 0,-126.965 75.23,-196.883 211.83,-196.883 110.4,0 179.86,43.946 212.34,134.293 9.55,25.91 -4.87,35.5 -20.89,41.692"
         style="fill:#ffffff;fill-opacity:1;fill-rule:nonzero;stroke:none"
         id="path20"
         inkscape:connector-curvature="0" /><path
         d="m 6893.71,382.012 c 0,0 -31.56,11.906 -44.89,11.765 -14.18,-0.144 -20.22,-10.859 -25.76,-22.82 -22.99,-49.68 -57.58,-75.848 -118.92,-75.848 -73.75,0 -114.37,36.954 -114.37,104.039 l 0,141.543 c 0,67.477 39.55,103.141 114.37,103.141 62.69,0 92.79,-22.391 114.88,-73.977 4.18,-9.761 10.77,-22.089 26.09,-23.046 12.04,-0.758 59.39,15.093 68.51,29.652 4.06,6.477 2.97,15.387 -0.78,25.582 -18.9,59.676 -69.79,130.812 -204.93,130.812 -140.25,0 -217.48,-69.578 -217.48,-195.921 l 0,-134.024 c 0,-126.965 75.23,-196.883 211.83,-196.883 110.4,0 179.86,43.946 212.34,134.293 9.55,25.91 -4.86,35.5 -20.89,41.692"
         style="fill:#ffffff;fill-opacity:1;fill-rule:nonzero;stroke:none"
         id="path22"
         inkscape:connector-curvature="0" /></g></g></svg>